<mxfile host="app.diagrams.net" modified="2021-10-18T15:59:56.663Z" agent="5.0 (Windows NT 10.0; Win64; x64) AppleWebKit/537.36 (KHTML, like Gecko) Chrome/94.0.4606.81 Safari/537.36" etag="BUAnDlgUDaXG0oMHg-61" version="15.4.3" type="github">
  <diagram id="7jCEV3gtXmofWcO8c_bA" name="Page-1">
    <mxGraphModel dx="1422" dy="879" grid="1" gridSize="10" guides="1" tooltips="1" connect="1" arrows="1" fold="1" page="1" pageScale="1" pageWidth="1169" pageHeight="827" math="0" shadow="0">
      <root>
        <mxCell id="0" />
        <mxCell id="1" parent="0" />
        <mxCell id="MzWkRPOBSA-DR4fBtqHt-5" style="edgeStyle=orthogonalEdgeStyle;rounded=0;orthogonalLoop=1;jettySize=auto;html=1;endArrow=none;endFill=0;" parent="1" source="MzWkRPOBSA-DR4fBtqHt-1" target="MzWkRPOBSA-DR4fBtqHt-2" edge="1">
          <mxGeometry relative="1" as="geometry" />
        </mxCell>
        <mxCell id="MzWkRPOBSA-DR4fBtqHt-1" value="Клиент" style="shape=umlActor;verticalLabelPosition=bottom;verticalAlign=top;html=1;outlineConnect=0;" parent="1" vertex="1">
          <mxGeometry x="105" y="40" width="30" height="60" as="geometry" />
        </mxCell>
        <mxCell id="MzWkRPOBSA-DR4fBtqHt-8" style="edgeStyle=orthogonalEdgeStyle;rounded=1;orthogonalLoop=1;jettySize=auto;html=1;endArrow=classic;endFill=1;" parent="1" source="MzWkRPOBSA-DR4fBtqHt-2" target="MzWkRPOBSA-DR4fBtqHt-7" edge="1">
          <mxGeometry relative="1" as="geometry" />
        </mxCell>
        <mxCell id="MzWkRPOBSA-DR4fBtqHt-2" value="Получить список&lt;br&gt;кредитных&lt;br&gt;организаций" style="html=1;dashed=0;whitespace=wrap;" parent="1" vertex="1">
          <mxGeometry x="70" y="160" width="100" height="50" as="geometry" />
        </mxCell>
        <mxCell id="MzWkRPOBSA-DR4fBtqHt-6" style="edgeStyle=orthogonalEdgeStyle;rounded=0;orthogonalLoop=1;jettySize=auto;html=1;endArrow=classic;endFill=1;" parent="1" source="MzWkRPOBSA-DR4fBtqHt-3" target="MzWkRPOBSA-DR4fBtqHt-2" edge="1">
          <mxGeometry relative="1" as="geometry" />
        </mxCell>
        <mxCell id="MzWkRPOBSA-DR4fBtqHt-3" value="Кредитные&lt;br&gt;организации" style="html=1;dashed=0;whitespace=wrap;shape=partialRectangle;right=0;" parent="1" vertex="1">
          <mxGeometry x="70" y="270" width="100" height="30" as="geometry" />
        </mxCell>
        <mxCell id="MzWkRPOBSA-DR4fBtqHt-10" style="edgeStyle=orthogonalEdgeStyle;rounded=1;orthogonalLoop=1;jettySize=auto;html=1;endArrow=classic;endFill=1;" parent="1" source="MzWkRPOBSA-DR4fBtqHt-7" target="MzWkRPOBSA-DR4fBtqHt-9" edge="1">
          <mxGeometry relative="1" as="geometry" />
        </mxCell>
        <mxCell id="MzWkRPOBSA-DR4fBtqHt-7" value="Выполнить&lt;br&gt;фильтрацию&lt;br&gt;организаций" style="html=1;dashed=0;whitespace=wrap;" parent="1" vertex="1">
          <mxGeometry x="230" y="160" width="120" height="50" as="geometry" />
        </mxCell>
        <mxCell id="MzWkRPOBSA-DR4fBtqHt-19" style="edgeStyle=orthogonalEdgeStyle;rounded=1;orthogonalLoop=1;jettySize=auto;html=1;endFill=1;endArrow=classic;" parent="1" source="MzWkRPOBSA-DR4fBtqHt-9" target="MzWkRPOBSA-DR4fBtqHt-18" edge="1">
          <mxGeometry relative="1" as="geometry" />
        </mxCell>
        <mxCell id="MzWkRPOBSA-DR4fBtqHt-9" value="Открыть&lt;br&gt;карточку&lt;br&gt;организации" style="html=1;dashed=0;whitespace=wrap;" parent="1" vertex="1">
          <mxGeometry x="414" y="160" width="100" height="50" as="geometry" />
        </mxCell>
        <mxCell id="MzWkRPOBSA-DR4fBtqHt-15" style="rounded=0;orthogonalLoop=1;jettySize=auto;html=1;endArrow=classic;endFill=1;edgeStyle=orthogonalEdgeStyle;" parent="1" source="MzWkRPOBSA-DR4fBtqHt-13" target="MzWkRPOBSA-DR4fBtqHt-9" edge="1">
          <mxGeometry relative="1" as="geometry" />
        </mxCell>
        <mxCell id="MzWkRPOBSA-DR4fBtqHt-13" value="Вид кредитования" style="html=1;dashed=0;whitespace=wrap;shape=partialRectangle;right=0;" parent="1" vertex="1">
          <mxGeometry x="409" y="270" width="110" height="30" as="geometry" />
        </mxCell>
        <mxCell id="MzWkRPOBSA-DR4fBtqHt-23" style="edgeStyle=orthogonalEdgeStyle;rounded=1;orthogonalLoop=1;jettySize=auto;html=1;endFill=1;startArrow=none;endArrow=classic;" parent="1" source="RfxOitIQ1wXGV1ma2rkV-3" target="MzWkRPOBSA-DR4fBtqHt-21" edge="1">
          <mxGeometry relative="1" as="geometry" />
        </mxCell>
        <mxCell id="RfxOitIQ1wXGV1ma2rkV-1" style="edgeStyle=orthogonalEdgeStyle;rounded=1;orthogonalLoop=1;jettySize=auto;html=1;endArrow=classic;endFill=1;" parent="1" source="MzWkRPOBSA-DR4fBtqHt-18" target="MzWkRPOBSA-DR4fBtqHt-7" edge="1">
          <mxGeometry relative="1" as="geometry">
            <Array as="points">
              <mxPoint x="600" y="100" />
              <mxPoint x="290" y="100" />
            </Array>
          </mxGeometry>
        </mxCell>
        <mxCell id="MzWkRPOBSA-DR4fBtqHt-18" value="" style="shape=rhombus;html=1;dashed=0;whitespace=wrap;perimeter=rhombusPerimeter;" parent="1" vertex="1">
          <mxGeometry x="570" y="160" width="60" height="50" as="geometry" />
        </mxCell>
        <mxCell id="RfxOitIQ1wXGV1ma2rkV-6" value="" style="edgeStyle=orthogonalEdgeStyle;rounded=1;orthogonalLoop=1;jettySize=auto;html=1;endArrow=classic;endFill=1;" parent="1" source="MzWkRPOBSA-DR4fBtqHt-21" target="RfxOitIQ1wXGV1ma2rkV-5" edge="1">
          <mxGeometry relative="1" as="geometry" />
        </mxCell>
        <mxCell id="hcitVitwt_Ul8VR0oAIN-3" style="edgeStyle=orthogonalEdgeStyle;rounded=0;orthogonalLoop=1;jettySize=auto;html=1;" parent="1" source="MzWkRPOBSA-DR4fBtqHt-21" target="hcitVitwt_Ul8VR0oAIN-2" edge="1">
          <mxGeometry relative="1" as="geometry" />
        </mxCell>
        <mxCell id="MzWkRPOBSA-DR4fBtqHt-21" value="Подать сведения" style="html=1;dashed=0;whitespace=wrap;" parent="1" vertex="1">
          <mxGeometry x="840" y="160" width="100" height="50" as="geometry" />
        </mxCell>
        <mxCell id="RfxOitIQ1wXGV1ma2rkV-3" value="Открыть форму заявки" style="rounded=0;whiteSpace=wrap;html=1;" parent="1" vertex="1">
          <mxGeometry x="680" y="160" width="100" height="50" as="geometry" />
        </mxCell>
        <mxCell id="RfxOitIQ1wXGV1ma2rkV-4" value="" style="edgeStyle=orthogonalEdgeStyle;rounded=1;orthogonalLoop=1;jettySize=auto;html=1;endFill=1;endArrow=classic;" parent="1" source="MzWkRPOBSA-DR4fBtqHt-18" target="RfxOitIQ1wXGV1ma2rkV-3" edge="1">
          <mxGeometry relative="1" as="geometry">
            <mxPoint x="630" y="185" as="sourcePoint" />
            <mxPoint x="840" y="185" as="targetPoint" />
          </mxGeometry>
        </mxCell>
        <mxCell id="RfxOitIQ1wXGV1ma2rkV-14" style="rounded=0;orthogonalLoop=1;jettySize=auto;html=1;" parent="1" source="RfxOitIQ1wXGV1ma2rkV-5" target="RfxOitIQ1wXGV1ma2rkV-12" edge="1">
          <mxGeometry relative="1" as="geometry" />
        </mxCell>
        <mxCell id="RfxOitIQ1wXGV1ma2rkV-5" value="Подать заявку" style="whiteSpace=wrap;html=1;dashed=0;" parent="1" vertex="1">
          <mxGeometry x="1020" y="160" width="100" height="50" as="geometry" />
        </mxCell>
        <mxCell id="RfxOitIQ1wXGV1ma2rkV-10" value="" style="edgeStyle=orthogonalEdgeStyle;rounded=0;orthogonalLoop=1;jettySize=auto;html=1;endArrow=none;endFill=0;" parent="1" source="RfxOitIQ1wXGV1ma2rkV-7" target="RfxOitIQ1wXGV1ma2rkV-13" edge="1">
          <mxGeometry relative="1" as="geometry">
            <mxPoint x="120" y="500" as="targetPoint" />
          </mxGeometry>
        </mxCell>
        <mxCell id="RfxOitIQ1wXGV1ma2rkV-7" value="Диспетчер" style="shape=umlActor;verticalLabelPosition=bottom;verticalAlign=top;html=1;outlineConnect=0;" parent="1" vertex="1">
          <mxGeometry x="105" y="360" width="30" height="60" as="geometry" />
        </mxCell>
        <mxCell id="RfxOitIQ1wXGV1ma2rkV-12" value="Заявки" style="html=1;dashed=0;whitespace=wrap;shape=partialRectangle;right=0;" parent="1" vertex="1">
          <mxGeometry x="1020" y="270" width="100" height="30" as="geometry" />
        </mxCell>
        <mxCell id="RfxOitIQ1wXGV1ma2rkV-18" style="edgeStyle=orthogonalEdgeStyle;rounded=1;orthogonalLoop=1;jettySize=auto;html=1;endArrow=classic;endFill=1;" parent="1" source="RfxOitIQ1wXGV1ma2rkV-13" target="RfxOitIQ1wXGV1ma2rkV-17" edge="1">
          <mxGeometry relative="1" as="geometry" />
        </mxCell>
        <mxCell id="RfxOitIQ1wXGV1ma2rkV-13" value="Получить заявку" style="html=1;dashed=0;whitespace=wrap;" parent="1" vertex="1">
          <mxGeometry x="60" y="480" width="120" height="50" as="geometry" />
        </mxCell>
        <mxCell id="RfxOitIQ1wXGV1ma2rkV-16" style="edgeStyle=orthogonalEdgeStyle;rounded=0;orthogonalLoop=1;jettySize=auto;html=1;" parent="1" source="RfxOitIQ1wXGV1ma2rkV-15" target="RfxOitIQ1wXGV1ma2rkV-13" edge="1">
          <mxGeometry relative="1" as="geometry" />
        </mxCell>
        <mxCell id="RfxOitIQ1wXGV1ma2rkV-15" value="Заявки" style="html=1;dashed=0;whitespace=wrap;shape=partialRectangle;right=0;" parent="1" vertex="1">
          <mxGeometry x="70" y="590" width="100" height="30" as="geometry" />
        </mxCell>
        <mxCell id="RfxOitIQ1wXGV1ma2rkV-20" style="edgeStyle=orthogonalEdgeStyle;rounded=1;orthogonalLoop=1;jettySize=auto;html=1;endArrow=classic;endFill=1;" parent="1" source="RfxOitIQ1wXGV1ma2rkV-17" target="RfxOitIQ1wXGV1ma2rkV-19" edge="1">
          <mxGeometry relative="1" as="geometry" />
        </mxCell>
        <mxCell id="RfxOitIQ1wXGV1ma2rkV-17" value="Проверка на наличие&lt;br&gt;необходимых сведений" style="html=1;dashed=0;whitespace=wrap;" parent="1" vertex="1">
          <mxGeometry x="240" y="480" width="140" height="50" as="geometry" />
        </mxCell>
        <mxCell id="RfxOitIQ1wXGV1ma2rkV-21" style="edgeStyle=orthogonalEdgeStyle;rounded=1;orthogonalLoop=1;jettySize=auto;html=1;endArrow=classic;endFill=1;" parent="1" source="RfxOitIQ1wXGV1ma2rkV-19" target="RfxOitIQ1wXGV1ma2rkV-13" edge="1">
          <mxGeometry relative="1" as="geometry">
            <Array as="points">
              <mxPoint x="470" y="440" />
              <mxPoint x="160" y="440" />
            </Array>
          </mxGeometry>
        </mxCell>
        <mxCell id="RfxOitIQ1wXGV1ma2rkV-23" style="edgeStyle=orthogonalEdgeStyle;rounded=1;orthogonalLoop=1;jettySize=auto;html=1;endArrow=classic;endFill=1;" parent="1" source="RfxOitIQ1wXGV1ma2rkV-19" target="RfxOitIQ1wXGV1ma2rkV-22" edge="1">
          <mxGeometry relative="1" as="geometry" />
        </mxCell>
        <mxCell id="RfxOitIQ1wXGV1ma2rkV-19" value="" style="shape=rhombus;html=1;dashed=0;whitespace=wrap;perimeter=rhombusPerimeter;" parent="1" vertex="1">
          <mxGeometry x="440" y="480" width="60" height="50" as="geometry" />
        </mxCell>
        <mxCell id="RfxOitIQ1wXGV1ma2rkV-25" style="edgeStyle=orthogonalEdgeStyle;rounded=0;orthogonalLoop=1;jettySize=auto;html=1;" parent="1" source="RfxOitIQ1wXGV1ma2rkV-22" target="RfxOitIQ1wXGV1ma2rkV-24" edge="1">
          <mxGeometry relative="1" as="geometry" />
        </mxCell>
        <mxCell id="RfxOitIQ1wXGV1ma2rkV-22" value="Изменить статус&lt;br&gt;заявки на&lt;br&gt;&quot;Проверенная&quot;" style="html=1;dashed=0;whitespace=wrap;" parent="1" vertex="1">
          <mxGeometry x="540" y="480" width="120" height="50" as="geometry" />
        </mxCell>
        <mxCell id="RfxOitIQ1wXGV1ma2rkV-24" value="Заявки" style="html=1;dashed=0;whitespace=wrap;shape=partialRectangle;right=0;" parent="1" vertex="1">
          <mxGeometry x="550" y="590" width="100" height="30" as="geometry" />
        </mxCell>
        <mxCell id="RfxOitIQ1wXGV1ma2rkV-30" style="edgeStyle=orthogonalEdgeStyle;rounded=0;orthogonalLoop=1;jettySize=auto;html=1;endArrow=none;endFill=0;" parent="1" source="RfxOitIQ1wXGV1ma2rkV-26" target="RfxOitIQ1wXGV1ma2rkV-27" edge="1">
          <mxGeometry relative="1" as="geometry" />
        </mxCell>
        <mxCell id="hcitVitwt_Ul8VR0oAIN-11" value="" style="edgeStyle=orthogonalEdgeStyle;rounded=0;orthogonalLoop=1;jettySize=auto;html=1;" parent="1" source="RfxOitIQ1wXGV1ma2rkV-26" target="pGxzcwg39qCcAhBh0YZc-3" edge="1">
          <mxGeometry relative="1" as="geometry">
            <mxPoint x="250" y="870" as="targetPoint" />
          </mxGeometry>
        </mxCell>
        <mxCell id="pGxzcwg39qCcAhBh0YZc-5" style="edgeStyle=orthogonalEdgeStyle;rounded=0;orthogonalLoop=1;jettySize=auto;html=1;endArrow=none;endFill=0;" edge="1" parent="1" source="RfxOitIQ1wXGV1ma2rkV-26" target="pGxzcwg39qCcAhBh0YZc-4">
          <mxGeometry relative="1" as="geometry" />
        </mxCell>
        <mxCell id="RfxOitIQ1wXGV1ma2rkV-26" value="Менеджер" style="shape=umlActor;verticalLabelPosition=bottom;verticalAlign=top;html=1;outlineConnect=0;" parent="1" vertex="1">
          <mxGeometry x="105" y="860" width="30" height="60" as="geometry" />
        </mxCell>
        <mxCell id="RfxOitIQ1wXGV1ma2rkV-33" style="edgeStyle=orthogonalEdgeStyle;rounded=1;orthogonalLoop=1;jettySize=auto;html=1;endArrow=classic;endFill=1;" parent="1" source="RfxOitIQ1wXGV1ma2rkV-27" target="RfxOitIQ1wXGV1ma2rkV-32" edge="1">
          <mxGeometry relative="1" as="geometry" />
        </mxCell>
        <mxCell id="RfxOitIQ1wXGV1ma2rkV-27" value="Получить&lt;br&gt;проверенную&lt;br&gt;заявку" style="html=1;dashed=0;whitespace=wrap;" parent="1" vertex="1">
          <mxGeometry x="70" y="980" width="100" height="50" as="geometry" />
        </mxCell>
        <mxCell id="RfxOitIQ1wXGV1ma2rkV-29" style="edgeStyle=orthogonalEdgeStyle;rounded=0;orthogonalLoop=1;jettySize=auto;html=1;" parent="1" source="RfxOitIQ1wXGV1ma2rkV-28" target="RfxOitIQ1wXGV1ma2rkV-27" edge="1">
          <mxGeometry relative="1" as="geometry" />
        </mxCell>
        <mxCell id="RfxOitIQ1wXGV1ma2rkV-28" value="Заявки" style="html=1;dashed=0;whitespace=wrap;shape=partialRectangle;right=0;" parent="1" vertex="1">
          <mxGeometry x="70" y="1090" width="100" height="30" as="geometry" />
        </mxCell>
        <mxCell id="RfxOitIQ1wXGV1ma2rkV-36" style="edgeStyle=orthogonalEdgeStyle;rounded=1;orthogonalLoop=1;jettySize=auto;html=1;endArrow=classic;endFill=1;" parent="1" source="RfxOitIQ1wXGV1ma2rkV-32" target="RfxOitIQ1wXGV1ma2rkV-35" edge="1">
          <mxGeometry relative="1" as="geometry" />
        </mxCell>
        <mxCell id="RfxOitIQ1wXGV1ma2rkV-32" value="Оценка&lt;br&gt;платежеспособности" style="html=1;dashed=0;whitespace=wrap;" parent="1" vertex="1">
          <mxGeometry x="240" y="980" width="130" height="50" as="geometry" />
        </mxCell>
        <mxCell id="RfxOitIQ1wXGV1ma2rkV-37" style="edgeStyle=orthogonalEdgeStyle;rounded=1;orthogonalLoop=1;jettySize=auto;html=1;endArrow=classic;endFill=1;" parent="1" source="RfxOitIQ1wXGV1ma2rkV-35" target="RfxOitIQ1wXGV1ma2rkV-27" edge="1">
          <mxGeometry relative="1" as="geometry">
            <Array as="points">
              <mxPoint x="470" y="940" />
              <mxPoint x="160" y="940" />
            </Array>
          </mxGeometry>
        </mxCell>
        <mxCell id="RfxOitIQ1wXGV1ma2rkV-39" style="edgeStyle=orthogonalEdgeStyle;rounded=1;orthogonalLoop=1;jettySize=auto;html=1;endArrow=classic;endFill=1;" parent="1" source="RfxOitIQ1wXGV1ma2rkV-35" target="RfxOitIQ1wXGV1ma2rkV-38" edge="1">
          <mxGeometry relative="1" as="geometry" />
        </mxCell>
        <mxCell id="RfxOitIQ1wXGV1ma2rkV-35" value="" style="shape=rhombus;html=1;dashed=0;whitespace=wrap;perimeter=rhombusPerimeter;" parent="1" vertex="1">
          <mxGeometry x="440" y="980" width="60" height="50" as="geometry" />
        </mxCell>
        <mxCell id="RfxOitIQ1wXGV1ma2rkV-38" value="Оформить&lt;br&gt;договор" style="html=1;dashed=0;whitespace=wrap;" parent="1" vertex="1">
          <mxGeometry x="560" y="980" width="100" height="50" as="geometry" />
        </mxCell>
        <mxCell id="RfxOitIQ1wXGV1ma2rkV-41" style="edgeStyle=orthogonalEdgeStyle;rounded=0;orthogonalLoop=1;jettySize=auto;html=1;endArrow=none;endFill=0;" parent="1" source="RfxOitIQ1wXGV1ma2rkV-40" target="RfxOitIQ1wXGV1ma2rkV-38" edge="1">
          <mxGeometry relative="1" as="geometry" />
        </mxCell>
        <mxCell id="RfxOitIQ1wXGV1ma2rkV-40" value="Клиент" style="shape=umlActor;verticalLabelPosition=bottom;verticalAlign=top;html=1;outlineConnect=0;" parent="1" vertex="1">
          <mxGeometry x="595" y="860" width="30" height="60" as="geometry" />
        </mxCell>
        <mxCell id="hcitVitwt_Ul8VR0oAIN-5" style="edgeStyle=orthogonalEdgeStyle;rounded=0;orthogonalLoop=1;jettySize=auto;html=1;" parent="1" source="hcitVitwt_Ul8VR0oAIN-2" target="RfxOitIQ1wXGV1ma2rkV-5" edge="1">
          <mxGeometry relative="1" as="geometry">
            <Array as="points">
              <mxPoint x="970" y="285" />
              <mxPoint x="970" y="200" />
            </Array>
          </mxGeometry>
        </mxCell>
        <mxCell id="hcitVitwt_Ul8VR0oAIN-2" value="Кредитополучатель" style="html=1;dashed=0;whitespace=wrap;shape=partialRectangle;right=0;" parent="1" vertex="1">
          <mxGeometry x="830" y="270" width="120" height="30" as="geometry" />
        </mxCell>
        <mxCell id="hcitVitwt_Ul8VR0oAIN-8" style="edgeStyle=orthogonalEdgeStyle;rounded=0;orthogonalLoop=1;jettySize=auto;html=1;" parent="1" source="hcitVitwt_Ul8VR0oAIN-7" target="RfxOitIQ1wXGV1ma2rkV-17" edge="1">
          <mxGeometry relative="1" as="geometry" />
        </mxCell>
        <mxCell id="hcitVitwt_Ul8VR0oAIN-7" value="Требования" style="html=1;dashed=0;whitespace=wrap;shape=partialRectangle;right=0;" parent="1" vertex="1">
          <mxGeometry x="260" y="590" width="100" height="30" as="geometry" />
        </mxCell>
        <mxCell id="pGxzcwg39qCcAhBh0YZc-2" style="edgeStyle=orthogonalEdgeStyle;rounded=0;orthogonalLoop=1;jettySize=auto;html=1;" edge="1" parent="1" source="pGxzcwg39qCcAhBh0YZc-1" target="RfxOitIQ1wXGV1ma2rkV-32">
          <mxGeometry relative="1" as="geometry" />
        </mxCell>
        <mxCell id="pGxzcwg39qCcAhBh0YZc-1" value="Кредитополучатель" style="html=1;dashed=0;whitespace=wrap;shape=partialRectangle;right=0;" vertex="1" parent="1">
          <mxGeometry x="245" y="1090" width="120" height="30" as="geometry" />
        </mxCell>
        <mxCell id="pGxzcwg39qCcAhBh0YZc-9" style="edgeStyle=orthogonalEdgeStyle;rounded=0;orthogonalLoop=1;jettySize=auto;html=1;endArrow=classic;endFill=1;" edge="1" parent="1" source="pGxzcwg39qCcAhBh0YZc-3" target="pGxzcwg39qCcAhBh0YZc-8">
          <mxGeometry relative="1" as="geometry" />
        </mxCell>
        <mxCell id="pGxzcwg39qCcAhBh0YZc-3" value="&lt;span&gt;Требования&lt;br&gt;к заявке&lt;br&gt;на кредит&lt;/span&gt;" style="html=1;dashed=0;whitespace=wrap;" vertex="1" parent="1">
          <mxGeometry x="260" y="865" width="100" height="50" as="geometry" />
        </mxCell>
        <mxCell id="pGxzcwg39qCcAhBh0YZc-7" style="edgeStyle=orthogonalEdgeStyle;rounded=0;orthogonalLoop=1;jettySize=auto;html=1;endArrow=classic;endFill=1;" edge="1" parent="1" source="pGxzcwg39qCcAhBh0YZc-4" target="pGxzcwg39qCcAhBh0YZc-6">
          <mxGeometry relative="1" as="geometry" />
        </mxCell>
        <mxCell id="pGxzcwg39qCcAhBh0YZc-11" style="edgeStyle=orthogonalEdgeStyle;rounded=0;orthogonalLoop=1;jettySize=auto;html=1;endArrow=classic;endFill=1;" edge="1" parent="1" source="pGxzcwg39qCcAhBh0YZc-4" target="pGxzcwg39qCcAhBh0YZc-10">
          <mxGeometry relative="1" as="geometry">
            <Array as="points">
              <mxPoint x="220" y="785" />
              <mxPoint x="220" y="695" />
            </Array>
          </mxGeometry>
        </mxCell>
        <mxCell id="pGxzcwg39qCcAhBh0YZc-4" value="Обновить данные&lt;br&gt;о кредитной&lt;br&gt;организации" style="html=1;dashed=0;whitespace=wrap;" vertex="1" parent="1">
          <mxGeometry x="60" y="760" width="120" height="50" as="geometry" />
        </mxCell>
        <mxCell id="pGxzcwg39qCcAhBh0YZc-6" value="Кредитные&lt;br&gt;организации" style="html=1;dashed=0;whitespace=wrap;shape=partialRectangle;right=0;" vertex="1" parent="1">
          <mxGeometry x="70" y="680" width="100" height="30" as="geometry" />
        </mxCell>
        <mxCell id="pGxzcwg39qCcAhBh0YZc-8" value="Требования" style="html=1;dashed=0;whitespace=wrap;shape=partialRectangle;right=0;" vertex="1" parent="1">
          <mxGeometry x="260" y="780" width="100" height="30" as="geometry" />
        </mxCell>
        <mxCell id="pGxzcwg39qCcAhBh0YZc-10" value="Вид кредитования" style="html=1;dashed=0;whitespace=wrap;shape=partialRectangle;right=0;" vertex="1" parent="1">
          <mxGeometry x="255" y="680" width="110" height="30" as="geometry" />
        </mxCell>
      </root>
    </mxGraphModel>
  </diagram>
</mxfile>
